<mxfile host="app.diagrams.net" agent="Mozilla/5.0 (Windows NT 10.0; Win64; x64) AppleWebKit/537.36 (KHTML, like Gecko) Chrome/131.0.0.0 Safari/537.36" version="26.0.4">
  <diagram name="Pagina-1" id="-K388p5hZq6RN03tlh2g">
    <mxGraphModel dx="1114" dy="600" grid="1" gridSize="10" guides="1" tooltips="1" connect="1" arrows="1" fold="1" page="1" pageScale="1" pageWidth="827" pageHeight="1169" math="0" shadow="0">
      <root>
        <mxCell id="0" />
        <mxCell id="1" parent="0" />
        <mxCell id="qs27nL-RxqQGuJzDt2Ua-24" style="edgeStyle=orthogonalEdgeStyle;rounded=0;orthogonalLoop=1;jettySize=auto;html=1;entryX=0.5;entryY=0;entryDx=0;entryDy=0;" edge="1" parent="1" source="qs27nL-RxqQGuJzDt2Ua-1" target="qs27nL-RxqQGuJzDt2Ua-2">
          <mxGeometry relative="1" as="geometry" />
        </mxCell>
        <mxCell id="qs27nL-RxqQGuJzDt2Ua-1" value="START" style="ellipse;whiteSpace=wrap;html=1;" vertex="1" parent="1">
          <mxGeometry x="354" y="10" width="120" height="80" as="geometry" />
        </mxCell>
        <mxCell id="qs27nL-RxqQGuJzDt2Ua-23" style="edgeStyle=orthogonalEdgeStyle;rounded=0;orthogonalLoop=1;jettySize=auto;html=1;entryX=0.5;entryY=0;entryDx=0;entryDy=0;" edge="1" parent="1" source="qs27nL-RxqQGuJzDt2Ua-2" target="qs27nL-RxqQGuJzDt2Ua-3">
          <mxGeometry relative="1" as="geometry" />
        </mxCell>
        <mxCell id="qs27nL-RxqQGuJzDt2Ua-2" value="read max" style="shape=parallelogram;perimeter=parallelogramPerimeter;whiteSpace=wrap;html=1;fixedSize=1;" vertex="1" parent="1">
          <mxGeometry x="354" y="130" width="120" height="60" as="geometry" />
        </mxCell>
        <mxCell id="qs27nL-RxqQGuJzDt2Ua-21" style="edgeStyle=orthogonalEdgeStyle;rounded=0;orthogonalLoop=1;jettySize=auto;html=1;entryX=0.5;entryY=0;entryDx=0;entryDy=0;" edge="1" parent="1" source="qs27nL-RxqQGuJzDt2Ua-3" target="qs27nL-RxqQGuJzDt2Ua-4">
          <mxGeometry relative="1" as="geometry" />
        </mxCell>
        <mxCell id="qs27nL-RxqQGuJzDt2Ua-3" value="cont = 1" style="rounded=0;whiteSpace=wrap;html=1;" vertex="1" parent="1">
          <mxGeometry x="354" y="230" width="120" height="60" as="geometry" />
        </mxCell>
        <mxCell id="qs27nL-RxqQGuJzDt2Ua-9" value="" style="edgeStyle=orthogonalEdgeStyle;rounded=0;orthogonalLoop=1;jettySize=auto;html=1;" edge="1" parent="1" source="qs27nL-RxqQGuJzDt2Ua-4" target="qs27nL-RxqQGuJzDt2Ua-5">
          <mxGeometry relative="1" as="geometry" />
        </mxCell>
        <mxCell id="qs27nL-RxqQGuJzDt2Ua-10" value="TRUE" style="edgeLabel;html=1;align=center;verticalAlign=middle;resizable=0;points=[];" vertex="1" connectable="0" parent="qs27nL-RxqQGuJzDt2Ua-9">
          <mxGeometry x="-0.6" relative="1" as="geometry">
            <mxPoint as="offset" />
          </mxGeometry>
        </mxCell>
        <mxCell id="qs27nL-RxqQGuJzDt2Ua-17" style="edgeStyle=orthogonalEdgeStyle;rounded=0;orthogonalLoop=1;jettySize=auto;html=1;" edge="1" parent="1" source="qs27nL-RxqQGuJzDt2Ua-4" target="qs27nL-RxqQGuJzDt2Ua-7">
          <mxGeometry relative="1" as="geometry" />
        </mxCell>
        <mxCell id="qs27nL-RxqQGuJzDt2Ua-18" value="FALSE" style="edgeLabel;html=1;align=center;verticalAlign=middle;resizable=0;points=[];" vertex="1" connectable="0" parent="qs27nL-RxqQGuJzDt2Ua-17">
          <mxGeometry x="-0.3727" y="2" relative="1" as="geometry">
            <mxPoint as="offset" />
          </mxGeometry>
        </mxCell>
        <mxCell id="qs27nL-RxqQGuJzDt2Ua-4" value="cont &amp;lt; 4" style="rhombus;whiteSpace=wrap;html=1;" vertex="1" parent="1">
          <mxGeometry x="319" y="340" width="190" height="80" as="geometry" />
        </mxCell>
        <mxCell id="qs27nL-RxqQGuJzDt2Ua-20" value="" style="edgeStyle=orthogonalEdgeStyle;rounded=0;orthogonalLoop=1;jettySize=auto;html=1;" edge="1" parent="1" source="qs27nL-RxqQGuJzDt2Ua-5" target="qs27nL-RxqQGuJzDt2Ua-6">
          <mxGeometry relative="1" as="geometry" />
        </mxCell>
        <mxCell id="qs27nL-RxqQGuJzDt2Ua-5" value="cont = cont+ 1" style="rounded=0;whiteSpace=wrap;html=1;" vertex="1" parent="1">
          <mxGeometry x="354" y="460" width="120" height="40" as="geometry" />
        </mxCell>
        <mxCell id="qs27nL-RxqQGuJzDt2Ua-22" style="edgeStyle=orthogonalEdgeStyle;rounded=0;orthogonalLoop=1;jettySize=auto;html=1;" edge="1" parent="1" source="qs27nL-RxqQGuJzDt2Ua-6" target="qs27nL-RxqQGuJzDt2Ua-11">
          <mxGeometry relative="1" as="geometry" />
        </mxCell>
        <mxCell id="qs27nL-RxqQGuJzDt2Ua-6" value="read N" style="shape=parallelogram;perimeter=parallelogramPerimeter;whiteSpace=wrap;html=1;fixedSize=1;" vertex="1" parent="1">
          <mxGeometry x="340" y="585" width="120" height="60" as="geometry" />
        </mxCell>
        <mxCell id="qs27nL-RxqQGuJzDt2Ua-19" style="edgeStyle=orthogonalEdgeStyle;rounded=0;orthogonalLoop=1;jettySize=auto;html=1;entryX=0.5;entryY=0;entryDx=0;entryDy=0;" edge="1" parent="1" source="qs27nL-RxqQGuJzDt2Ua-7" target="qs27nL-RxqQGuJzDt2Ua-8">
          <mxGeometry relative="1" as="geometry" />
        </mxCell>
        <mxCell id="qs27nL-RxqQGuJzDt2Ua-7" value="while max" style="shape=parallelogram;perimeter=parallelogramPerimeter;whiteSpace=wrap;html=1;fixedSize=1;" vertex="1" parent="1">
          <mxGeometry x="650" y="450" width="120" height="40" as="geometry" />
        </mxCell>
        <mxCell id="qs27nL-RxqQGuJzDt2Ua-8" value="END" style="ellipse;whiteSpace=wrap;html=1;" vertex="1" parent="1">
          <mxGeometry x="650" y="610" width="120" height="80" as="geometry" />
        </mxCell>
        <mxCell id="qs27nL-RxqQGuJzDt2Ua-15" style="edgeStyle=orthogonalEdgeStyle;rounded=0;orthogonalLoop=1;jettySize=auto;html=1;exitX=0.5;exitY=1;exitDx=0;exitDy=0;" edge="1" parent="1" source="qs27nL-RxqQGuJzDt2Ua-11" target="qs27nL-RxqQGuJzDt2Ua-4">
          <mxGeometry relative="1" as="geometry">
            <mxPoint x="180" y="380" as="targetPoint" />
            <Array as="points">
              <mxPoint x="400" y="810" />
              <mxPoint x="191" y="810" />
              <mxPoint x="191" y="380" />
            </Array>
          </mxGeometry>
        </mxCell>
        <mxCell id="qs27nL-RxqQGuJzDt2Ua-11" value="n &amp;gt; max" style="rhombus;whiteSpace=wrap;html=1;" vertex="1" parent="1">
          <mxGeometry x="320" y="710" width="160" height="80" as="geometry" />
        </mxCell>
        <mxCell id="qs27nL-RxqQGuJzDt2Ua-16" style="edgeStyle=orthogonalEdgeStyle;rounded=0;orthogonalLoop=1;jettySize=auto;html=1;" edge="1" parent="1" source="qs27nL-RxqQGuJzDt2Ua-12">
          <mxGeometry relative="1" as="geometry">
            <mxPoint x="310" y="810" as="targetPoint" />
          </mxGeometry>
        </mxCell>
        <mxCell id="qs27nL-RxqQGuJzDt2Ua-12" value="max = N" style="rounded=0;whiteSpace=wrap;html=1;" vertex="1" parent="1">
          <mxGeometry x="530" y="810" width="120" height="40" as="geometry" />
        </mxCell>
        <mxCell id="qs27nL-RxqQGuJzDt2Ua-13" style="edgeStyle=orthogonalEdgeStyle;rounded=0;orthogonalLoop=1;jettySize=auto;html=1;entryX=0.558;entryY=0.033;entryDx=0;entryDy=0;entryPerimeter=0;" edge="1" parent="1" source="qs27nL-RxqQGuJzDt2Ua-11" target="qs27nL-RxqQGuJzDt2Ua-12">
          <mxGeometry relative="1" as="geometry" />
        </mxCell>
        <mxCell id="qs27nL-RxqQGuJzDt2Ua-14" value="TRUE" style="edgeLabel;html=1;align=center;verticalAlign=middle;resizable=0;points=[];" vertex="1" connectable="0" parent="qs27nL-RxqQGuJzDt2Ua-13">
          <mxGeometry x="-0.3966" y="-1" relative="1" as="geometry">
            <mxPoint as="offset" />
          </mxGeometry>
        </mxCell>
      </root>
    </mxGraphModel>
  </diagram>
</mxfile>
